<?xml version="1.0" encoding="UTF-8" standalone="no"?>
<svg
   xml:space="preserve"
   style="clip-rule:evenodd;fill-rule:evenodd;stroke-linejoin:round;stroke-miterlimit:1.41421"
   viewBox="0 0 68.848786 69.413223"
   version="1.1"
   id="svg4"
   sodipodi:docname="ico-blender.svg"
   width="68.848785"
   height="69.413223"
   inkscape:version="1.3.2 (091e20ef0f, 2023-11-25)"
   xmlns:inkscape="http://www.inkscape.org/namespaces/inkscape"
   xmlns:sodipodi="http://sodipodi.sourceforge.net/DTD/sodipodi-0.dtd"
   xmlns="http://www.w3.org/2000/svg"
   xmlns:svg="http://www.w3.org/2000/svg"><defs
     id="defs4" /><sodipodi:namedview
     id="namedview4"
     pagecolor="#ffffff"
     bordercolor="#000000"
     borderopacity="0.25"
     inkscape:showpageshadow="2"
     inkscape:pageopacity="0.0"
     inkscape:pagecheckerboard="0"
     inkscape:deskcolor="#d1d1d1"
     inkscape:zoom="5.2140197"
     inkscape:cx="42.481619"
     inkscape:cy="27.905533"
     inkscape:window-width="1334"
     inkscape:window-height="736"
     inkscape:window-x="32"
     inkscape:window-y="0"
     inkscape:window-maximized="1"
     inkscape:current-layer="svg4" /><path
     d="m 35.63206,37.574221 c 0.106,-1.891 1.032,-3.557 2.429,-4.738 1.37,-1.16 3.214,-1.869 5.226,-1.869 2.01,0 3.854,0.709 5.225,1.869 1.396,1.181 2.322,2.847 2.429,4.736 0.106,1.943 -0.675,3.748 -2.045,5.086 -1.397,1.361 -3.384,2.215 -5.609,2.215 -2.225,0 -4.216,-0.854 -5.612,-2.215 -1.371,-1.338 -2.15,-3.143 -2.043,-5.084 z"
     style="fill:#0e548b;fill-rule:nonzero"
     id="path2" /><path
     d="m 23.44206,41.395221 c 0.013,0.74 0.249,2.178 0.603,3.301 0.744,2.377 2.006,4.576 3.762,6.514 1.802,1.992 4.021,3.592 6.584,4.728 2.694,1.193 5.613,1.801 8.645,1.796 a 21.179,21.179 0 0 0 8.64,-1.826 c 2.563,-1.147 4.78,-2.754 6.579,-4.747 1.755,-1.946 3.015,-4.149 3.761,-6.526 0.375,-1.201 0.612,-2.42 0.707,-3.643 a 16.605,16.605 0 0 0 -0.117,-3.618 16.819,16.819 0 0 0 -2.399,-6.565 18.316,18.316 0 0 0 -4.376,-4.825 l 0.004,-0.003 -17.711,-13.598999 c -0.016,-0.012 -0.029,-0.025 -0.046,-0.036 -1.162,-0.892 -3.116,-0.889 -4.394,0.005 -1.292,0.904 -1.44,2.399 -0.29,3.342 l -0.005,0.005 7.387,6.006999 -22.515,0.024 h -0.03 c -1.861,0.002 -3.65,1.223 -4.004,2.766 -0.364,1.572 0.9,2.876 2.835,2.883 l -0.003,0.007 11.412,-0.022 -20.3639998,15.631 -0.078,0.058 c -1.921,1.471 -2.542,3.917 -1.332,5.465 1.228,1.574 3.8389998,1.577 5.7799998,0.009 l 11.114,-9.096 c 0,0 -0.162,1.228 -0.149,1.965 z m 28.559,4.112 c -2.29,2.333 -5.496,3.656 -8.965,3.663 -3.474,0.006 -6.68,-1.305 -8.97,-3.634 a 10.665,10.665 0 0 1 -2.448,-3.832 9.95,9.95 0 0 1 -0.562,-4.282 10.11,10.11 0 0 1 1.227,-4.031 11.11,11.11 0 0 1 2.724,-3.239 c 2.226,-1.814 5.06,-2.796 8.024,-2.8 2.967,-0.004 5.799,0.969 8.027,2.777 a 11.067,11.067 0 0 1 2.721,3.229 10.115,10.115 0 0 1 1.232,4.029 9.975,9.975 0 0 1 -0.564,4.279 10.714,10.714 0 0 1 -2.446,3.841 z"
     style="fill:#f4792b;fill-rule:nonzero"
     id="path3" /></svg>
