<?xml version="1.0" encoding="UTF-8" standalone="no"?>
<svg
   version="1.1"
   id="Layer_1"
   x="0"
   y="0"
   viewBox="0 0 37.009617 37.009618"
   xml:space="preserve"
   sodipodi:docname="ico-orchid.svg"
   width="37.009617"
   height="37.009617"
   inkscape:version="1.3.2 (091e20ef0f, 2023-11-25)"
   xmlns:inkscape="http://www.inkscape.org/namespaces/inkscape"
   xmlns:sodipodi="http://sodipodi.sourceforge.net/DTD/sodipodi-0.dtd"
   xmlns="http://www.w3.org/2000/svg"
   xmlns:svg="http://www.w3.org/2000/svg"><defs
     id="defs2" /><sodipodi:namedview
     id="namedview2"
     pagecolor="#ffffff"
     bordercolor="#000000"
     borderopacity="0.25"
     inkscape:showpageshadow="2"
     inkscape:pageopacity="0.0"
     inkscape:pagecheckerboard="true"
     inkscape:deskcolor="#d1d1d1"
     inkscape:zoom="6.7282609"
     inkscape:cx="24.226171"
     inkscape:cy="21.476575"
     inkscape:window-width="1334"
     inkscape:window-height="736"
     inkscape:window-x="32"
     inkscape:window-y="0"
     inkscape:window-maximized="1"
     inkscape:current-layer="Layer_1" /><style
     id="style1">.st0{fill:#fff}</style><rect
     style="fill:#522d67;fill-opacity:1;stroke:none;stroke-width:40.0003;stroke-linecap:round;stroke-linejoin:round;-inkscape-stroke:none"
     id="rect2"
     width="37.009617"
     height="37.009617"
     x="0"
     y="0" /><path
     id="path1"
     class="st0"
     d="M 18.999886,3.5705874 C 18.237583,3.5576968 17.472542,3.6049625 16.722543,3.6799624 10.722549,4.3799617 5.4233229,8.9795777 4.0233243,14.779572 c -0.2999997,1.299998 -0.5,2.500782 -0.5,3.800781 0,1.299998 0.4007816,4.198437 0.8007812,4.398437 0.3999997,-3.499996 3.0992219,-6.198438 6.1992185,-7.398437 5.399995,-2.099998 11.599224,-0.900394 16.699219,-3.900391 1.599998,-0.699999 2.800779,-2.8011728 1.300781,-4.2011715 -0.699999,-0.4999994 -1.799609,-1.6992172 -1.099609,-0.1992187 0.199999,1.8999981 -1.601174,3.0000002 -3.201172,3.5000002 -3.299997,0.999999 -6.699613,0.9 -10.09961,1.5 -0.499999,0 -1.699998,0.299218 -0.5,-0.300782 3.099997,-1.499998 7.100784,-1.299221 9.800782,-3.6992182 1.399998,-1.0999989 0.798826,-3.4000006 -0.701172,-4 -1.187499,-0.4999995 -2.45215,-0.6875 -3.722657,-0.7089844 z m 12.123047,6.8085936 c -0.399999,0.999999 -0.99961,1.800391 -1.599609,2.400391 -3.399997,3.199996 -8.199223,3.800781 -12.699219,4.300781 -3.299996,0.399999 -7.001564,1.09844 -9.1015619,3.898437 -1.8999981,2.499998 -1.2988262,6.100784 0.7011718,8.300782 0.3999996,0.599999 1.7003911,1.699609 1.9003901,1.599609 -1.7999977,-2.499998 -1.8011687,-6.500002 0.798829,-8.5 2.699997,-2.199998 6.299612,-2.100392 9.599609,-2.900391 1.899998,-0.399999 4.001173,-0.99961 5.701172,-1.599609 -2.499998,2.199998 -5.800394,3.09961 -8.900391,4.099609 -2.599997,0.899999 -5.099219,3.100003 -5.199219,6 -0.1,1.999998 0.900003,4.501563 3,5.101563 5.599995,1.299998 11.699613,-1.000005 15.09961,-5.5 3.799996,-4.799995 4.099215,-12.001177 0.699218,-17.201172 z" /></svg>
